<svg xmlns="http://www.w3.org/2000/svg" width="24" height="24" viewBox="0 0 24 24">
  <path fill="#000000" fill-rule="evenodd" d="M3,8.77000202 L3,14.7700017 L6.99999976,14.7700017 L11.9999995,19.7700014 L11.9999995,3.77000232 L6.99999976,8.77000202 L3,8.77000202 Z M16.4999992,11.7700018 C16.4999992,10.0000014 15.4799988,8.48000207 13.9999993,7.74000188 L13.9999993,15.790002 C15.4799988,15.0600025 16.4999992,13.5400021 16.4999992,11.7700018 Z M13.9999993,3 L13.9999993,5.06000221 C16.8899985,5.92000228 18.999999,8.60000195 18.999999,11.7700018 C18.999999,14.9400017 16.8899985,17.6200018 13.9999993,18.4800004 L13.9999993,20.5399998 C18.0099993,19.6300001 20.9999989,16.0500003 20.9999989,11.7699998 C20.9999989,7.4899995 18.0099993,3.91000027 13.9999993,3 Z"/>
</svg>
