<svg xmlns="http://www.w3.org/2000/svg" width="24" height="24" viewBox="0 0 24 24">
  <path fill="#000000" fill-rule="evenodd" d="M15.4999993,13.9999993 L14.7099993,13.9999993 L14.4299996,13.7299989 C15.4099991,12.5899995 15.9999992,11.1099991 15.9999992,9.49999961 C15.9999992,5.90999967 13.0899995,3 9.49999961,3 C5.90999967,3 3,5.90999967 3,9.49999961 C3,13.0899995 5.90999967,15.9999992 9.49999961,15.9999992 C11.1099991,15.9999992 12.5899995,15.4099991 13.7299989,14.4299996 L13.9999993,14.7099993 L13.9999993,15.4999993 L18.999999,20.4899987 L20.4899987,18.999999 L15.4999993,13.9999993 Z M9.49999961,13.9999993 C7.00999998,13.9999993 4.99999988,11.9899992 4.99999988,9.49999961 C4.99999988,7.00999998 7.00999998,4.99999988 9.49999961,4.99999988 C11.9899992,4.99999988 13.9999993,7.00999998 13.9999993,9.49999961 C13.9999993,11.9899992 11.9899992,13.9999993 9.49999961,13.9999993 Z"/>
</svg>
