<svg xmlns="http://www.w3.org/2000/svg" width="24" height="24" viewBox="0 0 24 24">
  <path fill="#000000" d="M13,5 L10,5 C9.44771525,5 9,5.44771525 9,6 L9,18 C9,18.5522847 9.44771525,19 10,19 L13,19 C13.5522847,19 14,18.5522847 14,18 L14,6 C14,5.44771525 13.5522847,5 13,5 Z M20,5 L17,5 C16.4477153,5 16,5.44771525 16,6 L16,18 C16,18.5522847 16.4477153,19 17,19 L20,19 C20.5522847,19 21,18.5522847 21,18 L21,6 C21,5.44771525 20.5522847,5 20,5 Z M6,5 L3,5 C2.44771525,5 2,5.44771525 2,6 L2,18 C2,18.5522847 2.44771525,19 3,19 L6,19 C6.55228475,19 7,18.5522847 7,18 L7,6 C7,5.44771525 6.55228475,5 6,5 Z"/>
</svg>
