<?xml version="1.0" encoding="UTF-8"?>
<svg width="24px" height="24px" viewBox="0 0 24 24" version="1.1" xmlns="http://www.w3.org/2000/svg" xmlns:xlink="http://www.w3.org/1999/xlink">
    <!-- Generator: Sketch 50.2 (55047) - http://www.bohemiancoding.com/sketch -->
    <title>icon-user</title>
    <desc>Created with Sketch.</desc>
    <defs></defs>
    <g id="icon-user" stroke="none" stroke-width="1" fill="#000000" fill-rule="evenodd">
        <path d="M11.9999994,2 C6.47999974,2 2,6.47999974 2,11.9999994 C2,17.5199995 6.47999974,21.9999988 11.9999994,21.9999988 C17.5199995,21.9999988 21.9999988,17.5199995 21.9999988,11.9999994 C21.9999988,6.47999927 17.5199995,2 11.9999994,2 Z M11.9999994,4.99999982 C13.6599991,4.99999982 14.9999992,6.33999989 14.9999992,7.99999964 C14.9999992,9.65999938 13.6599991,10.9999995 11.9999994,10.9999995 C10.3399996,10.9999995 8.99999958,9.65999938 8.99999958,7.99999964 C8.99999958,6.33999989 10.3399996,4.99999982 11.9999994,4.99999982 Z M11.9999994,19.1999997 C9.49999955,19.1999997 7.28999964,17.919999 5.99999976,15.9799996 C6.02999996,13.99 9.99999952,12.8999998 11.9999994,12.8999998 C13.989999,12.8999998 17.9700002,13.99 17.999999,15.9799996 C16.7099981,17.919999 14.4999993,19.1999997 11.9999994,19.1999997 Z" id="Fill-2" fill="#000000"></path>
    </g>
</svg>