<?xml version="1.0" encoding="UTF-8"?>
<svg width="24px" height="24px" viewBox="0 0 24 24" version="1.1" xmlns="http://www.w3.org/2000/svg" xmlns:xlink="http://www.w3.org/1999/xlink">
    <!-- Generator: Sketch 50.2 (55047) - http://www.bohemiancoding.com/sketch -->
    <title>icon-eye</title>
    <desc>Created with Sketch.</desc>
    <defs></defs>
    <g id="icon-eye" stroke="none" stroke-width="1" fill="none" fill-rule="evenodd">
        <path d="M11.9999993,5 C6.99999964,5 2.72999991,8.10999994 1,12.4999996 C2.72999991,16.8899986 6.99999964,19.9999991 11.9999993,19.9999991 C16.999999,19.9999991 21.2699992,16.8899986 22.9999987,12.4999996 C21.2699992,8.10999994 16.999999,5 11.9999993,5 Z M11.9999993,17.4999993 C9.23999928,17.4999993 6.99999964,15.2599996 6.99999964,12.4999996 C6.99999964,9.73999949 9.23999928,7.49999985 11.9999993,7.49999985 C14.7599994,7.49999985 16.999999,9.73999949 16.999999,12.4999996 C16.999999,15.2599996 14.7599994,17.4999993 11.9999993,17.4999993 Z M11.9999993,9.49999973 C10.3399995,9.49999973 8.99999952,10.8399997 8.99999952,12.4999996 C8.99999952,14.1599993 10.3399995,15.4999994 11.9999993,15.4999994 C13.659999,15.4999994 14.9999992,14.1599993 14.9999992,12.4999996 C14.9999992,10.8399997 13.659999,9.49999973 11.9999993,9.49999973 Z" id="Fill-2" fill="#3D3D3D"></path>
    </g>
</svg>