<svg xmlns="http://www.w3.org/2000/svg" width="90" height="64" viewBox="0 0 90 64">
  <g fill="none">
    <path fill="#FFFFFF" d="M85.2089065,1.24661604 L5.12497707,1.24661604 C2.69513224,1.24661604 0.927332086,3.07076043 1.1620997,5.30809581 C3.04024064,23.2537324 4.9121211,41.2001516 6.7777411,59.1473534 C7.01250871,61.3940795 8.89064965,63.2158762 10.954257,63.2158762 L79.3819742,63.2158762 C81.450277,63.2158762 83.3190272,61.3940795 83.5584902,59.1473534 C85.4303706,41.2064121 87.3030336,23.2599929 89.1764792,5.30809581 C89.4135945,3.07076043 87.6387513,1.24661604 85.2089065,1.24661604 Z"/>
    <path fill="#000000" d="M58.6238216 31.310957L58.6026925 31.310957C58.4432624 31.3054507 58.2925621 31.2367861 58.1837937 31.1200912 58.0750252 31.0033963 58.0171131 30.848246 58.0228165 30.6888229 58.0409802 30.164654 57.8442289 29.6558144 57.4781556 29.2802172 57.0509149 28.8463799 56.4647289 28.6063066 55.8559114 28.6158248 54.6046 28.6158248 53.5669271 29.5548953 53.545798 30.7287334 53.5356023 31.0590232 53.2634906 31.3207091 52.9330545 31.3180001 52.602034 31.311575 52.3385523 31.0386457 52.3437878 30.7076043 52.3766553 28.8928506 53.9542937 27.4208576 55.8653021 27.4208576 56.7998051 27.4090768 57.6983248 27.7807025 58.3514911 28.4491398 58.9463083 29.0603135 59.2652457 29.8881937 59.2342174 30.7404717 59.217809 31.0640877 58.947807 31.3164358 58.6238216 31.310957zM31.710062 31.310957C31.3870923 31.3112035 31.1216728 31.056152 31.1090569 30.7334287 31.0771981 29.881012 31.3962572 29.0528161 31.9917831 28.4420968 32.6476495 27.7773837 33.5441782 27.4057349 34.4779722 27.4114669 36.3819376 27.4114669 37.9572283 28.8858076 37.9994864 30.6982136 38.0053211 31.0301395 37.7409718 31.3039486 37.4090459 31.3097832 37.0771199 31.3156178 36.8033109 31.0512686 36.7974762 30.7193427 36.7763472 29.5572429 35.741022 28.6064341 34.4873629 28.6064341 33.8793043 28.5972852 33.2939848 28.837351 32.8674663 29.2708265 32.4998275 29.6455776 32.302087 30.1547806 32.3204578 30.6794322 32.3261612 30.8388553 32.2682491 30.9940056 32.1594806 31.1107005 32.0507122 31.2273954 31.9000119 31.29606 31.7405818 31.3015663L31.710062 31.310957zM45.1669418 45.2796302C43.6909751 45.2789351 42.2620152 44.7605218 41.1289388 43.8146803 39.7426887 42.6668344 38.9243399 40.972724 38.886908 39.1733245L38.886908 38.5629287 51.4681046 38.5629287 51.4563662 39.1733245C51.4152495 40.9725926 50.5934771 42.6649809 49.2049448 43.809985 48.0729239 44.758221 46.6436345 45.2784159 45.1669418 45.2796302zM40.1335241 39.7625912C40.3140396 40.9873201 40.9411994 42.101992 41.8942812 42.8920436 43.7851547 44.4756449 46.5393382 44.4756449 48.4302117 42.8920436 49.3841631 42.1027182 50.0115254 40.9876863 50.1909688 39.7625912L40.1335241 39.7625912z"/>
    <path fill="#000000" d="M48.8199259,43.3521881 C46.7057326,45.1208642 43.628151,45.1208642 41.5139577,43.3521881 C42.2705535,42.0512171 43.6619624,41.2508091 45.1669418,41.2508091 C46.6719211,41.2508091 48.0633301,42.0512171 48.8199259,43.3521881 Z"/>
    <path fill="#B3B3B3" d="M62.1782033 37.5182128C62.1289021 38.6216206 60.53483 39.5137376 58.5909541 39.5137376 56.6470782 39.5137376 55.1140457 38.6216206 55.1422178 37.5182128 55.1703899 36.414805 56.7738528 35.5226881 58.729467 35.5226881 60.6850813 35.5226881 62.2298522 36.4171527 62.1782033 37.5182128zM28.1603756 37.5182128C28.2096768 38.6216206 29.8037489 39.5137376 31.7476248 39.5137376 33.6915007 39.5137376 35.2245332 38.6216206 35.1987088 37.5182128 35.1728843 36.414805 33.5553355 35.5226881 31.6091119 35.5226881 29.6628884 35.5226881 28.1063791 36.4171527 28.1603756 37.5182128z"/>
    <path fill="#000000" d="M71.1909321 8.52441216L1.43208246 8.52441216C1.10793603 8.52441216.84516342 8.26163956.84516342 7.93749312.84516342 7.61334669 1.10793603 7.35057408 1.43208246 7.35057408L71.1909321 7.35057408C71.5150785 7.35057408 71.7778511 7.61334669 71.7778511 7.93749312 71.7778511 8.26163956 71.5150785 8.52441216 71.1909321 8.52441216zM78.8490518 8.52441216L74.3227321 8.52441216C73.9985857 8.52441216 73.7358131 8.26163956 73.7358131 7.93749312 73.7358131 7.61334669 73.9985857 7.35057408 74.3227321 7.35057408L78.8490518 7.35057408C79.1731982 7.35057408 79.4359708 7.61334669 79.4359708 7.93749312 79.4359708 8.26163956 79.1731982 8.52441216 78.8490518 8.52441216zM88.9018011 8.52441216L81.4526246 8.52441216C81.1284782 8.52441216 80.8657056 8.26163956 80.8657056 7.93749312 80.8657056 7.61334669 81.1284782 7.35057408 81.4526246 7.35057408L88.8947581 7.35057408C89.2189045 7.35057408 89.4816771 7.61334669 89.4816771 7.93749312 89.4816771 8.26163956 89.2189045 8.52441216 88.8947581 8.52441216L88.9018011 8.52441216z"/>
    <path fill="#000000" d="M79.3819742,63.9295697 L10.9519093,63.9295697 C8.53849822,63.9295697 6.35046403,61.8166612 6.07578592,59.2342174 L0.457796853,5.39026448 C0.318903518,4.18416084 0.705465669,2.97658173 1.51894648,2.07534573 C2.44980282,1.0769897 3.76016698,0.51991431 5.12497707,0.542313195 L85.2089065,0.542313195 C86.5730196,0.51998927 87.8826309,1.0771073 88.8125894,2.07534573 C89.6267203,2.97714807 90.0133288,4.18572724 89.873739,5.39261216 L84.269836,59.229522 C83.9834195,61.8213565 81.7953853,63.9295697 79.3819742,63.9295697 Z M5.12497707,1.9509189 C4.15856426,1.92254818 3.22654102,2.31074868 2.56601005,3.01676388 C2.02145309,3.62338997 1.76479076,4.43529846 1.8617072,5.24470856 L7.47734859,59.0816184 C7.67690107,60.9785408 9.23810572,62.520964 10.9519093,62.520964 L79.3819742,62.520964 C81.0981255,62.520964 82.6687209,60.9785408 82.8588827,59.0816184 L88.474524,5.24470856 C88.5714405,4.43529846 88.3147782,3.62338997 87.7702212,3.01676388 C87.1056551,2.31516914 86.1750086,1.92789739 85.2089065,1.9509189 L5.12497707,1.9509189 Z"/>
  </g>
</svg>
