<svg xmlns="http://www.w3.org/2000/svg" width="332" height="200" viewBox="0 0 332 200">
  <g fill="none" opacity=".2" style="mix-blend-mode:multiply">
    <path fill="#B3B3B3" d="M76.3986047,139.141631 C83.0386047,127.339056 91.7632558,117.120172 113.463359,109.957082 C134.095401,103.150215 136.62615,88.9270386 149.25416,80.2446352 C166.21447,68.6094421 196.137364,62.472103 206.406202,103.399142 C214.182894,134.399142 231.065995,103.128755 260.881654,120.901288 C292.134264,139.536481 286.287804,181.592275 250.261085,183.236052 C242.016848,183.609442 217.948992,185.553648 193.550853,181.347639 C178.108992,178.686695 162.890181,164.815451 144.171214,166.467811 C125.568062,168.111588 104.378398,196.806867 89.5327649,188.214592 C72.3922997,178.287554 66.2284238,157.218884 76.3986047,139.141631 Z"/>
    <rect width="44.099" height="57.142" x="181.58" y="41.837" fill="#FFFFFF" rx="6.03" transform="rotate(16.89 203.63 70.408)"/>
    <path fill="#000000" d="M214.71907,104.583691 C214.357164,104.583839 213.997234,104.530325 213.651008,104.424893 L176.401809,93.1330472 C174.470588,92.542942 173.380838,90.5004185 173.965426,88.5665236 L189.051266,38.8197425 C189.641036,36.8874233 191.682398,35.7970536 193.615194,36.3819742 L230.864393,47.695279 C232.795613,48.2853842 233.885363,50.3279077 233.300775,52.2618026 L218.214935,101.987124 C217.74589,103.526808 216.327772,104.580121 214.71907,104.583691 Z M214.290129,102.373391 C215.09043,102.613345 215.934507,102.163297 216.181757,101.364807 L231.267597,51.639485 C231.509707,50.8395715 231.058662,49.994582 230.259587,49.751073 L192.99323,38.4334764 C192.194023,38.1937613 191.351226,38.6441471 191.105891,39.4420601 L176.015762,89.167382 C175.899659,89.5521169 175.941093,89.9672449 176.130945,90.3214078 C176.320797,90.6755707 176.643509,90.9397453 177.028062,91.055794 L214.290129,102.373391 Z"/>
    <path fill="#FFFFFF" d="M182.449871,64.2660944 L224.649044,77.0858369"/>
    <path fill="#000000" d="M224.649044,77.944206 C224.564668,77.9436423 224.480837,77.9306266 224.400258,77.9055794 L182.201085,65.0901288 C181.747427,64.9526501 181.491049,64.4732297 181.62845,64.0193133 C181.76585,63.5653969 182.244998,63.3088733 182.698656,63.4463519 L224.897829,76.2660944 C225.301852,76.391616 225.554107,76.7930955 225.492032,77.2118055 C225.429957,77.6305155 225.072086,77.941439 224.649044,77.944206 Z"/>
    <path fill="#FFFFFF" d="M187.442739,76.2317597 L213.85261,84.2575107"/>
    <path fill="#000000" d="M213.85261,85.1158798 C213.768234,85.1153161 213.684403,85.1023004 213.603824,85.0772532 L187.193953,77.055794 C186.900488,76.9668609 186.676733,76.7280323 186.606975,76.4292726 C186.537216,76.130513 186.632053,75.8172109 186.85576,75.6073842 C187.079467,75.3975576 187.398059,75.3230841 187.691525,75.4120172 L214.101395,83.4377682 C214.554967,83.5741685 214.812255,84.0525352 214.676176,84.5064378 C214.566293,84.8692743 214.231521,85.1170066 213.85261,85.1158798 Z"/>
    <path fill="#FFFFFF" d="M185.044961,84.1330472 L211.454832,92.1545064"/>
    <path fill="#000000" d="M211.4677,93.0128755 C211.381886,93.0127373 211.296578,92.9997168 211.214625,92.9742489 L184.804755,84.9527897 C184.351096,84.8153111 184.094718,84.3358907 184.232119,83.8819743 C184.369519,83.4280578 184.848667,83.1715343 185.302326,83.3090129 L211.716486,91.3347639 C212.120509,91.4602856 212.372763,91.861765 212.310688,92.280475 C212.248613,92.699185 211.890742,93.0101085 211.4677,93.0128755 Z"/>
    <polygon fill="#FFFFFF" points="203.597 51.18 192.762 61.326 206.964 65.639"/>
    <path fill="#000000" d="M208.134832,66.8927039 L191.088734,61.7167382 L204.094212,49.5364807 L208.134832,66.8927039 Z M194.408734,60.9356223 L205.76708,64.3690987 L203.073333,52.7811159 L194.408734,60.9356223 Z"/>
    <polygon fill="#FFFFFF" points="214.886 58.215 206.964 65.639 217.348 68.794"/>
    <path fill="#000000" d="M218.523773,70.0472103 L205.290956,66.0300429 L215.383928,56.5879828 L218.523773,70.0472103 Z M208.632403,65.2360515 L216.186047,67.5407725 L214.397364,59.8583691 L208.632403,65.2360515 Z"/>
    <ellipse cx="212.171" cy="51.069" fill="#FFFFFF" rx="2.484" ry="2.485"/>
    <path fill="#000000" d="M212.175452,54.416309 C211.845592,54.414395 211.517703,54.3652559 211.201757,54.2703863 C209.670559,53.8094107 208.678414,52.329939 208.832559,50.7374739 C208.986703,49.1450088 210.244161,47.8835379 211.835312,47.7251377 C213.426463,47.5667375 214.907686,48.5555709 215.372406,50.0864276 C215.837126,51.6172844 215.155777,53.2633536 213.745375,54.0171674 C213.26376,54.2797334 212.723918,54.4169841 212.175452,54.416309 Z M212.175452,49.4420601 C211.335273,49.4375692 210.629335,50.0728159 210.545002,50.9092392 C210.46067,51.7456624 211.025576,52.5091884 211.849722,52.6726947 C212.673868,52.836201 213.487203,52.346111 213.728217,51.5407725 C213.853714,51.1275801 213.809843,50.681414 213.606276,50.3006144 C213.402708,49.9198149 213.056154,49.6356416 212.642997,49.5107296 C212.491391,49.4648724 212.333834,49.4417316 212.175452,49.4420601 Z"/>
    <rect width="25.573" height="33.137" x="74.701" y="66.562" fill="#FFFFFF" rx="3.5" transform="rotate(-33.5 87.488 83.13)"/>
    <path fill="#000000" d="M86.3929199,104.502146 C85.5305762,104.502468 84.7253805,104.070638 84.2482171,103.351931 L67.62677,78.223176 C66.8435599,77.0378367 67.1679701,75.4417528 68.3516796,74.6566524 L87.1735917,62.2103004 C87.7434096,61.8340269 88.4393007,61.6997099 89.1081137,61.8369099 C89.7769928,61.9689406 90.3645274,62.3649785 90.7380879,62.9356223 L107.363824,88.0643777 C108.146205,89.2508325 107.81982,90.8471877 106.634625,91.6309013 L87.8084238,104.077253 C87.3882495,104.354298 86.8961226,104.50202 86.3929199,104.502146 Z M88.5890956,63.9098712 C88.5054467,63.9092543 88.423443,63.9331235 88.3531783,63.9785408 L69.5312661,76.4463519 C69.3355513,76.5773316 69.2819456,76.8416812 69.4111628,77.0386266 L86.0326098,102.167382 C86.163515,102.363208 86.4277144,102.416844 86.6245478,102.287554 L105.450749,89.8197425 C105.5439,89.7567244 105.608594,89.6596278 105.630904,89.5493562 C105.654189,89.4383358 105.632599,89.3226068 105.570853,89.2274678 L88.9451163,64.0987124 C88.8652173,63.9804383 88.7317724,63.9096562 88.5890956,63.9098712 Z"/>
    <path fill="#FFFFFF" d="M76.9176227,90.3347639 L98.2445478,76.2103004"/>
    <path fill="#000000" d="M76.9176227,91.193133 C76.5387754,91.1930383 76.2048447,90.9443126 76.0960744,90.581209 C75.9873041,90.2181054 76.1294505,89.8266051 76.4457881,89.6180258 L97.7684238,75.4935622 C98.0243441,75.3241294 98.3511642,75.3041765 98.6257741,75.4412197 C98.900384,75.5782628 99.0810639,75.8514819 99.0997534,76.1579579 C99.118443,76.4644339 98.9723028,76.7576058 98.7163824,76.9270386 L77.3894574,91.0472103 C77.2498743,91.1410751 77.0857961,91.191819 76.9176227,91.193133 Z"/>
    <path fill="#FFFFFF" d="M84.1066667,92.527897 L97.4552972,83.6866953"/>
    <path fill="#000000" d="M84.1066667,93.3862661 C83.7270241,93.388077 83.3913401,93.1400014 83.2814321,92.7764052 C83.1715241,92.4128089 83.3135332,92.0201717 83.6305426,91.8111588 L96.9791731,82.9699571 C97.3747917,82.7080366 97.9077116,82.8166028 98.1694832,83.2124464 C98.4312548,83.6082899 98.3227503,84.141513 97.9271318,84.4034335 L84.5785013,93.2446352 C84.4384432,93.3369835 84.2744009,93.3862241 84.1066667,93.3862661 Z"/>
    <path fill="#FFFFFF" d="M86.7446512,96.5193133 L100.093282,87.6781116"/>
    <path fill="#000000" d="M86.7446512,97.3776824 C86.3658038,97.3775877 86.0318731,97.1288619 85.9231028,96.7657583 C85.8143326,96.4026547 85.956479,96.0111544 86.2728165,95.8025751 L99.621447,86.9613734 C99.8773722,86.7865471 100.207634,86.763407 100.485413,86.9008388 C100.763192,87.0382706 100.945306,87.3149101 100.961824,87.6245281 C100.978341,87.934146 100.826695,88.2286114 100.565116,88.3948498 L87.2207752,97.2360515 C87.0789689,97.3280642 86.9136646,97.3772367 86.7446512,97.3776824 Z"/>
    <polygon fill="#FFFFFF" points="78.891 76.043 79.418 84.635 86.595 79.884"/>
    <path fill="#000000" d="M78.6505426,86.1716738 L77.9427907,74.6094421 L88.3059948,79.7596567 L78.6505426,86.1716738 Z M79.838708,77.472103 L80.1818605,83.0987124 L84.8787597,79.9914163 L79.838708,77.472103 Z"/>
    <polygon fill="#FFFFFF" points="86.208 73.597 86.595 79.884 91.845 76.408"/>
    <path fill="#000000" d="M85.8267183,81.4206009 L85.2605168,72.1630901 L93.5562274,76.304721 L85.8267183,81.4206009 Z M87.1564341,75.0300429 L87.3580362,78.3476395 L90.1289922,76.5107296 L87.1564341,75.0300429 Z"/>
    <ellipse cx="82.013" cy="72.167" fill="#FFFFFF" rx="1.441" ry="1.442"/>
    <path fill="#000000" d="M82.0177261,74.4678112 C81.862151,74.4669887 81.7070165,74.4511789 81.5544703,74.4206009 C80.3598685,74.1741656 79.567818,73.0342827 79.7530016,71.8280092 C79.9381852,70.6217357 81.035637,69.7722538 82.2490866,69.8959162 C83.4625361,70.0195785 84.3662837,71.0730023 84.3046034,72.291862 C84.2429231,73.5107217 83.2374534,74.4674197 82.0177261,74.4678112 Z M82.0177261,71.583691 C81.9032051,71.5847634 81.791454,71.6190532 81.6960207,71.6824034 C81.4579471,71.8427128 81.3731263,72.1533043 81.4966424,72.4124742 C81.6201585,72.6716441 81.9147501,72.801208 82.1891042,72.7170249 C82.4634584,72.6328418 82.6348099,72.3603073 82.5918801,72.0764102 C82.5489504,71.7925131 82.30469,71.5828973 82.0177261,71.583691 Z"/>
    <path fill="#FFFFFF" d="M240.635659,85.27897 L94.3154522,85.27897 C89.8759173,85.27897 86.6459948,88.6137339 87.0749354,92.7038627 C90.5064599,125.51073 93.9265461,158.319027 97.3351938,191.128755 C97.7641344,195.236052 101.195659,198.566524 104.966047,198.566524 L229.989354,198.566524 C233.76832,198.566524 237.182687,195.236052 237.620207,191.128755 C241.040293,158.330472 244.461809,125.522175 247.884755,92.7038627 C248.317984,88.6137339 245.075194,85.27897 240.635659,85.27897 Z"/>
    <path fill="#000000" d="M229.989354,199.871245 L104.961757,199.871245 C100.552248,199.871245 96.554522,196.008584 96.0526615,191.287554 L85.7881137,92.8540773 C85.5343437,90.649169 86.2406259,88.4415635 87.7269251,86.7939914 C89.4276794,84.9688718 91.8218271,83.9504683 94.3154522,83.9914163 L240.635659,83.9914163 C243.12801,83.9506054 245.520783,84.9690868 247.219897,86.7939914 C248.707384,88.4425988 249.41375,90.6520326 249.158708,92.8583691 L238.919897,191.27897 C238.396589,196.017167 234.398863,199.871245 229.989354,199.871245 Z M94.3154522,86.5665236 C92.5497331,86.5146584 90.8468467,87.2243374 89.64,88.5150215 C88.6450477,89.6240098 88.1761037,91.10828 88.3531783,92.5879828 L98.6134367,191.008584 C98.9780362,194.476395 101.830491,197.296137 104.961757,197.296137 L229.989354,197.296137 C233.12491,197.296137 235.994522,194.476395 236.341964,191.008584 L246.602222,92.5879828 C246.779297,91.10828 246.310353,89.6240098 245.315401,88.5150215 C244.101181,87.2324186 242.40081,86.5244374 240.635659,86.5665236 L94.3154522,86.5665236 Z"/>
    <path fill="#000000" d="M192.062429 140.240343L192.023824 140.240343C191.732532 140.230277 191.457189 140.10475 191.25846 139.891417 191.059731 139.678084 190.953921 139.39445 190.964341 139.103004 190.997528 138.144758 190.638046 137.214536 189.969199 136.527897 189.188594 135.734788 188.117581 135.295904 187.00522 135.313305 184.718966 135.313305 182.823049 137.030043 182.784444 139.175966 182.765816 139.779777 182.268645 140.258171 181.66491 140.253219 181.060107 140.241473 180.578703 139.742524 180.588269 139.137339 180.64832 135.819742 183.530801 133.128755 187.022377 133.128755 188.729794 133.107219 190.371467 133.786597 191.564858 135.008584 192.65164 136.125886 193.234366 137.639354 193.177674 139.197425 193.147695 139.789035 192.654378 140.250359 192.062429 140.240343zM142.888682 140.240343C142.298589 140.240794 141.813645 139.774528 141.790594 139.184549 141.732386 137.626225 142.315334 136.112179 143.403411 134.995708 144.601735 133.78053 146.23977 133.101109 147.945891 133.111588 151.424599 133.111588 154.302791 135.806867 154.38 139.120172 154.39066 139.726974 153.907672 140.227531 153.301214 140.238197 152.694757 140.248864 152.194485 139.7656 152.183824 139.158798 152.14522 137.034335 150.253592 135.296137 147.963049 135.296137 146.852074 135.279412 145.782645 135.718282 145.003359 136.51073 144.331652 137.195822 143.970363 138.126708 144.003928 139.085837 144.014348 139.377282 143.908538 139.660916 143.709809 139.874249 143.511079 140.087582 143.235737 140.21311 142.944444 140.223176L142.888682 140.240343zM167.475556 165.776824C164.778838 165.775553 162.168006 164.827829 160.097778 163.098712 157.56498 161.000307 156.069787 157.903261 156.001395 154.613734L156.001395 153.497854 178.98832 153.497854 178.966873 154.613734C178.89175 157.903021 177.390301 160.996918 174.853333 163.090129 172.785034 164.823623 170.1736 165.774604 167.475556 165.776824zM158.27907 155.690987C158.608887 157.929944 159.754762 159.967704 161.496124 161.412017 164.950912 164.307038 169.983041 164.307038 173.437829 161.412017 175.180781 159.969032 176.327025 157.930614 176.654884 155.690987L158.27907 155.690987z"/>
    <path fill="#000000" d="M174.149871,162.253219 C170.287058,165.48658 164.664053,165.48658 160.80124,162.253219 C162.183606,159.874881 164.725829,158.411635 167.475556,158.411635 C170.225282,158.411635 172.767505,159.874881 174.149871,162.253219 Z"/>
    <path fill="#B3B3B3" d="M198.556589 151.587983C198.466512 153.60515 195.554005 155.236052 192.002377 155.236052 188.450749 155.236052 185.649767 153.60515 185.70124 151.587983 185.752713 149.570815 188.682377 147.939914 192.255452 147.939914 195.828527 147.939914 198.650956 149.575107 198.556589 151.587983zM136.403101 151.587983C136.493178 153.60515 139.405685 155.236052 142.957313 155.236052 146.508941 155.236052 149.309922 153.60515 149.262739 151.587983 149.215556 149.570815 146.260155 147.939914 142.704238 147.939914 139.14832 147.939914 136.304444 149.575107 136.403101 151.587983z"/>
    <path fill="#000000" d="M215.023618 98.583691L87.5682171 98.583691C86.9759737 98.583691 86.4958656 98.1033098 86.4958656 97.5107296 86.4958656 96.9181494 86.9759737 96.4377682 87.5682171 96.4377682L215.023618 96.4377682C215.615861 96.4377682 216.095969 96.9181494 216.095969 97.5107296 216.095969 98.1033098 215.615861 98.583691 215.023618 98.583691zM229.015659 98.583691L220.745685 98.583691C220.153441 98.583691 219.673333 98.1033098 219.673333 97.5107296 219.673333 96.9181494 220.153441 96.4377682 220.745685 96.4377682L229.015659 96.4377682C229.607902 96.4377682 230.08801 96.9181494 230.08801 97.5107296 230.08801 98.1033098 229.607902 98.583691 229.015659 98.583691zM247.382894 98.583691L233.77261 98.583691C233.180366 98.583691 232.700258 98.1033098 232.700258 97.5107296 232.700258 96.9181494 233.180366 96.4377682 233.77261 96.4377682L247.370026 96.4377682C247.962269 96.4377682 248.442377 96.9181494 248.442377 97.5107296 248.442377 98.1033098 247.962269 98.583691 247.370026 98.583691L247.382894 98.583691z"/>
    <path fill="#FFFFFF" d="M266.873953,183.236052 L290.607235,183.236052 L290.607235,195.60515 C290.607235,197.252523 289.272535,198.587983 287.626098,198.587983 L269.85509,198.587983 C269.064444,198.587983 268.30618,198.273721 267.747108,197.714331 C267.188037,197.154942 266.873953,196.396247 266.873953,195.60515 L266.873953,183.236052 Z"/>
    <path fill="#000000" d="M287.630388,199.682403 L269.85509,199.682403 C267.605546,199.680038 265.782519,197.855974 265.780155,195.60515 L265.780155,182.137339 L291.709612,182.137339 L291.709612,195.60515 C291.704886,197.856668 289.88063,199.680043 287.630388,199.682403 Z M267.972041,184.334764 L267.972041,195.60515 C267.9744,196.644742 268.81609,197.48691 269.85509,197.48927 L287.630388,197.48927 C288.669388,197.48691 289.511078,196.644742 289.513437,195.60515 L289.513437,184.334764 L267.972041,184.334764 Z"/>
    <polygon fill="#FFFFFF" points="290.612 183.236 266.874 183.236 264.3 172.936 293.185 172.936"/>
    <path fill="#000000" d="M291.469406,184.334764 L266.020362,184.334764 L262.897674,171.83691 L294.592093,171.83691 L291.469406,184.334764 Z M267.731835,182.137339 L289.753643,182.137339 L291.778243,174.034335 L265.707235,174.034335 L267.731835,182.137339 Z"/>
    <path fill="#FFFFFF" d="M278.742739,153.04721 L278.742739,172.935622"/>
    <rect width="2.196" height="19.884" x="277.645" y="153.047" fill="#000000"/>
    <path fill="#FFFFFF" d="M287.24863,159.257511 C284.335669,160.290169 281.093393,159.68977 278.742739,157.682403 C279.30293,154.642826 281.441809,152.133463 284.353149,151.10019 C287.264489,150.066918 290.50564,150.666839 292.854884,152.67382 C292.299259,155.714544 290.160842,158.225789 287.24863,159.257511 Z"/>
    <path fill="#000000" d="M284.387597,160.849785 C282.064942,160.850158 279.817836,160.024128 278.047855,158.519313 L277.567442,158.090129 L277.678966,157.463519 C278.311002,154.037063 280.723021,151.208803 284.005463,150.04526 C287.287906,148.881716 290.941453,149.559886 293.588372,151.824034 L294.068786,152.253219 L293.952972,152.875536 C293.104497,157.494347 289.081111,160.848474 284.387597,160.849785 Z M279.986667,157.248927 C281.994973,158.678402 284.57301,159.040269 286.896899,158.218884 C289.219015,157.391829 290.992579,155.484324 291.649561,153.107296 C289.642675,151.674484 287.062998,151.312436 284.739586,152.137507 C282.416175,152.962577 280.641784,154.870807 279.986667,157.248927 Z"/>
    <path fill="#FFFFFF" d="M272.463049,155.072961 C275.417795,155.966811 277.673214,158.367419 278.382429,161.373391 C276.136676,163.488079 272.934967,164.245332 269.9806,163.360553 C267.026233,162.475774 264.766823,160.083014 264.051525,157.081545 C266.294997,154.955794 269.501947,154.190008 272.463049,155.072961 Z"/>
    <path fill="#000000" d="M272.450181,164.806867 C267.935042,164.802033 264.015009,161.693355 262.979173,157.296137 L262.837623,156.678112 L263.296589,156.248927 C265.833195,153.864865 269.446031,153.011417 272.780465,154.008584 C276.111235,155.01855 278.654613,157.72355 279.45907,161.111588 L279.60491,161.729614 L279.141654,162.158798 C277.327858,163.859181 274.935713,164.805843 272.450181,164.806867 Z M265.295452,157.416309 C266.063014,159.760932 267.927757,161.581958 270.288998,162.292786 C272.650239,163.003614 275.209655,162.514437 277.142791,160.982833 C276.373559,158.639568 274.508824,156.820034 272.148321,156.109428 C269.787817,155.398822 267.229231,155.886759 265.295452,157.416309 Z"/>
    <path fill="#FFFFFF" d="M274.895142,144.871245 C277.474633,146.576323 278.946857,149.530629 278.755607,152.618026 C275.989992,153.995519 272.699861,153.791325 270.125577,152.082424 C267.551294,150.373523 266.084331,147.419788 266.277726,144.334764 C269.039945,142.961524 272.324358,143.165996 274.895142,144.871245 Z"/>
    <path fill="#000000" d="M274.899432,154.618026 C272.208634,154.623458 269.635765,153.51353 267.792497,151.552113 C265.949228,149.590697 265.000209,146.952995 265.171059,144.266094 L265.209664,143.635193 L265.775866,143.351931 C268.893381,141.805276 272.598003,142.035823 275.499948,143.957082 C278.394597,145.888288 280.047204,149.211721 279.840827,152.686695 L279.797933,153.321888 L279.231731,153.60515 C277.884895,154.272192 276.402231,154.618834 274.899432,154.618026 Z M267.350078,145.064378 C267.40805,147.527408 268.664218,149.806983 270.714955,151.170645 C272.765693,152.534306 275.352669,152.810272 277.644651,151.909871 C277.582513,149.443744 276.324755,147.162162 274.273178,145.793991 C272.220942,144.439986 269.639219,144.167902 267.350078,145.064378 Z"/>
    <rect width="27.512" height="35.648" x="151.702" y="2.719" fill="#FFFFFF" rx="3.76" transform="rotate(8.68 165.459 20.543)"/>
    <path fill="#000000" d="M175.007752,41.0901288 C174.864081,41.0902582 174.720634,41.0787759 174.578811,41.055794 L150.55814,37.3905579 C149.114004,37.1429188 148.1337,35.784215 148.353385,34.3347639 L153.243307,2.29184549 C153.465892,0.821716135 154.836301,-0.19035122 156.305943,0.0300429185 L180.326615,3.69957082 C181.030852,3.80646431 181.663786,4.18895035 182.086127,4.76285493 C182.508467,5.33675951 182.685603,6.05505181 182.578553,6.75965665 L177.68863,38.806867 C177.486169,40.1287473 176.344258,41.1012952 175.007752,41.0901288 Z M155.89845,2.14592275 C155.63234,2.1471049 155.406689,2.34193054 155.366563,2.60515021 L150.472351,34.6523605 C150.452431,34.7951445 150.489404,34.9400416 150.575297,35.055794 C150.659628,35.170982 150.786068,35.2481231 150.927028,35.2703863 L174.9477,38.9356223 C175.089916,38.9587171 175.235412,38.9230968 175.350904,38.8369099 C175.466027,38.7525307 175.543124,38.6260192 175.565375,38.4849785 L180.442429,6.43776824 C180.486046,6.14182362 180.28313,5.86600685 179.987752,5.81974249 L155.979948,2.14592275 L155.89845,2.14592275 Z"/>
    <path fill="#FFFFFF" d="M151.832093,18.6437768 L179.026925,22.7982833"/>
    <path fill="#000000" d="M179.031214,23.6566524 L178.898243,23.6566524 L151.703411,19.5021459 C151.396919,19.4561461 151.138236,19.2500362 151.024805,18.961456 C150.911374,18.6728757 150.960427,18.3456672 151.153487,18.1030868 C151.346547,17.8605064 151.654284,17.7394078 151.960775,17.7854077 L179.159897,21.9399142 C179.466388,21.9629141 179.737334,22.1477711 179.870673,22.4248514 C180.004011,22.7019317 179.979485,23.0291402 179.806332,23.2832205 C179.633179,23.5373009 179.337706,23.6796523 179.031214,23.6566524 Z"/>
    <path fill="#FFFFFF" d="M155.979948,25.5879828 L173.00031,28.1888412"/>
    <path fill="#000000" d="M173.00031,29.0472103 L172.871628,29.0472103 L155.846977,26.4463519 C155.373182,26.3740571 155.047669,25.9311457 155.119923,25.4570816 C155.192176,24.9830174 155.634836,24.657319 156.10863,24.7296137 L173.128992,27.3304721 C173.602787,27.3660269 173.958067,27.7791547 173.922532,28.2532189 C173.886998,28.727283 173.474105,29.0827651 173.00031,29.0472103 Z"/>
    <path fill="#FFFFFF" d="M155.203566,30.6781116 L172.223928,33.27897"/>
    <path fill="#000000" d="M172.223928,34.1373391 L172.095245,34.1373391 L155.070594,31.5364807 C154.5968,31.4641859 154.271286,31.0212745 154.34354,30.5472103 C154.415794,30.0731462 154.858453,29.7474477 155.332248,29.8197425 L172.35261,32.4206009 C172.826404,32.4561557 173.181684,32.8692835 173.14615,33.3433476 C173.110615,33.8174118 172.697722,34.1728939 172.223928,34.1373391 Z"/>
    <polygon fill="#FFFFFF" points="163.722 8.678 157.936 15.91 167.09 17.305"/>
    <path fill="#000000" d="M168.427804,18.3776824 L156.335969,16.5321888 L163.97969,6.97854077 L168.427804,18.3776824 Z M159.535866,15.2832618 L165.746925,16.2317597 L163.464961,10.3733906 L159.535866,15.2832618 Z"/>
    <polygon fill="#FFFFFF" points="171.323 12.017 167.09 17.305 173.785 18.33"/>
    <path fill="#000000" d="M175.123566,19.4034335 L165.489561,17.9313305 L171.576227,10.3004292 L175.123566,19.4034335 Z M168.689457,16.6824034 L172.434109,17.2575107 L171.061499,13.7339056 L168.689457,16.6824034 Z"/>
    <ellipse cx="169.007" cy="7.845" fill="#FFFFFF" rx="1.548" ry="1.549"/>
    <path fill="#000000" d="M169.002584,10.2532189 C168.880598,10.2531917 168.758765,10.2445868 168.637984,10.2274678 C167.351317,10.038048 166.444542,8.86470248 166.585086,7.57106306 C166.725629,6.27742363 167.863195,5.32643163 169.160487,5.4180573 C170.45778,5.50968296 171.45055,6.61113717 171.408077,7.91170314 C171.365604,9.21226911 170.303087,10.2465268 169.002584,10.2532189 Z M169.002584,7.15450644 C168.855896,7.15326477 168.712814,7.19998121 168.59509,7.28755365 C168.446618,7.39639578 168.347713,7.56003705 168.320331,7.74214971 C168.292949,7.92426237 168.339357,8.10977724 168.449251,8.25751073 C168.676916,8.5620889 169.106923,8.62710474 169.414367,8.40343348 C169.562839,8.29459134 169.661744,8.13095008 169.689126,7.94883742 C169.716508,7.76672476 169.670101,7.58120988 169.560207,7.43347639 C169.452174,7.2868003 169.290004,7.18944306 169.109819,7.16309013 C169.07454,7.15599298 169.038543,7.15311159 169.002584,7.15450644 Z"/>
    <rect width="35.512" height="46.013" x="105.181" y="29.456" fill="#FFFFFF" rx="4.86" transform="rotate(-19.16 122.937 52.463)"/>
    <path fill="#000000" d="M114.994677,80.527897 C113.651807,80.5252959 112.457545,79.6729961 112.017829,78.4034335 L98.2917313,38.8798283 C98.0154564,38.0893592 98.0651025,37.2213559 98.4297015,36.4675838 C98.7943005,35.7138116 99.4438446,35.1363087 100.234832,34.8626609 L129.831731,24.5622318 C131.476877,23.9916127 133.273152,24.861458 133.846615,26.5064378 L147.572713,66.0343348 C148.143008,67.6804168 147.273657,69.4777132 145.629612,70.0515021 L116.032713,80.3519313 C115.698706,80.4672239 115.347999,80.5266751 114.994677,80.527897 Z M130.865478,26.5364807 C130.752989,26.5358493 130.641241,26.5547266 130.535194,26.5922747 L100.938295,36.8927039 C100.684743,36.9803301 100.476556,37.1654635 100.359822,37.4071198 C100.243087,37.648776 100.227436,37.927021 100.316331,38.1802575 L114.042429,77.7038627 C114.127419,77.9594019 114.313489,78.1688496 114.557158,78.2832618 C114.798487,78.3992736 115.075599,78.4162179 115.329251,78.3304721 L144.92615,68.0300429 C145.450898,67.8437138 145.728191,67.2696778 145.548114,66.7424893 L131.822016,27.2188841 C131.682754,26.8150644 131.305251,26.5420778 130.878346,26.5364807 L130.865478,26.5364807 Z"/>
    <path fill="#FFFFFF" d="M106.24,58.5064378 L139.787442,46.8454936"/>
    <path fill="#000000" d="M106.24,59.3648069 C105.82144,59.3639424 105.464604,59.0609799 105.395621,58.6479075 C105.326638,58.2348352 105.565647,57.8322532 105.961189,57.695279 L139.504341,46.0343348 C139.952077,45.8790788 140.440827,46.1163871 140.595995,46.5643777 C140.751163,47.0123683 140.513989,47.5013963 140.066253,47.6566524 L106.523101,59.3175966 C106.432245,59.3498781 106.336408,59.3658601 106.24,59.3648069 Z"/>
    <path fill="#FFFFFF" d="M115.157674,63.9313305 L136.154315,56.6309013"/>
    <path fill="#000000" d="M115.157674,64.806867 C114.738302,64.8081015 114.379508,64.5057859 114.309357,64.0920855 C114.239206,63.678385 114.478263,63.2745767 114.874574,63.1373391 L135.871214,55.8412017 C136.165959,55.7161348 136.505782,55.7656911 136.752588,55.9697323 C136.999393,56.1737735 137.112111,56.4983451 137.044936,56.8115504 C136.977761,57.1247557 136.741872,57.3744742 136.433127,57.4592275 L115.436486,64.7553648 C115.347496,64.7895098 115.252983,64.8069683 115.157674,64.806867 Z"/>
    <path fill="#FFFFFF" d="M117.336693,70.2103004 L138.333333,62.9098712"/>
    <path fill="#000000" d="M117.336693,71.0686695 C116.91732,71.0699041 116.558526,70.7675885 116.488375,70.3538881 C116.418224,69.9401876 116.657281,69.5363792 117.053592,69.3991416 L138.050233,62.1030043 C138.339867,62.0025712 138.66105,62.0643733 138.892795,62.2651302 C139.124541,62.4658871 139.231641,62.7750991 139.173752,63.076289 C139.115862,63.3774789 138.901779,63.6248889 138.612145,63.7253219 L117.619793,71.0214592 C117.528433,71.0517459 117.432931,71.0676719 117.336693,71.0686695 Z"/>
    <polygon fill="#FFFFFF" points="113.807 39.961 111.559 51.704 122.849 47.781"/>
    <path fill="#000000" d="M110.439328,53.0042918 L113.24031,38.3390558 L124.530026,48.1030043 L110.439328,53.0042918 Z M114.372713,41.583691 L112.682687,50.4077253 L121.162842,47.4549356 L114.372713,41.583691 Z"/>
    <polygon fill="#FFFFFF" points="124.491 39.189 122.849 47.781 131.106 44.91"/>
    <path fill="#000000" d="M121.724755,49.0772532 L123.929509,37.5665236 L132.791421,45.2317597 L121.724755,49.0772532 Z M125.057623,40.8111588 L123.963824,46.4806867 L129.41137,44.5879828 L125.057623,40.8111588 Z"/>
    <ellipse cx="119.34" cy="35.824" fill="#FFFFFF" rx="1.999" ry="2"/>
    <path fill="#000000" d="M119.344134 38.6824034C117.889627 38.6823235 116.667395 37.5887848 116.505335 36.1425118 116.343274 34.6962388 117.293133 33.3590324 118.711509 33.0366691 120.129886 32.7143057 121.563887 33.5097174 122.042171 34.8841202 122.344261 35.7581363 122.205748 36.7243349 121.670294 37.4781449 121.13484 38.2319549 120.268413 38.680506 119.344134 38.6824034zM119.344134 34.6781116C119.216991 34.6782124 119.090793 34.699983 118.970956 34.7424893 118.451476 34.9174473 118.128715 35.4361596 118.201064 35.9797928 118.273413 36.5234261 118.720586 36.9395559 119.267722 36.9724027 119.814858 37.0052496 120.308551 36.6456038 120.445346 36.1145263 120.582141 35.5834488 120.323683 35.0298437 119.828837 34.7939914 119.676621 34.7190697 119.509477 34.6794605 119.339845 34.6781116L119.344134 34.6781116zM22.6351938 199.776824L1.18816537 199.776824C.558488932 199.738986.0671971145 199.217007.0671971145 198.585837.0671971145 197.954667.558488932 197.432688 1.18816537 197.39485L22.6351938 197.39485C23.0775029 197.368271 23.4980681 197.58928 23.7272492 197.968731 23.9564304 198.348181 23.9564304 198.823493 23.7272492 199.202943 23.4980681 199.582394 23.0775029 199.803403 22.6351938 199.776824zM80.9539535 199.776824L34.3624289 199.776824C33.9201198 199.803403 33.4995546 199.582394 33.2703735 199.202943 33.0411924 198.823493 33.0411924 198.348181 33.2703735 197.968731 33.4995546 197.58928 33.9201198 197.368271 34.3624289 197.39485L80.9539535 197.39485C81.3962626 197.368271 81.8168278 197.58928 82.0460089 197.968731 82.2751901 198.348181 82.2751901 198.823493 82.0460089 199.202943 81.8168278 199.582394 81.3962626 199.803403 80.9539535 199.776824zM93.0286305 199.776824L86.1183979 199.776824C85.4887215 199.738986 84.9974297 199.217007 84.9974297 198.585837 84.9974297 197.954667 85.4887215 197.432688 86.1183979 197.39485L93.0286305 197.39485C93.4709396 197.368271 93.8915048 197.58928 94.1206859 197.968731 94.3498671 198.348181 94.3498671 198.823493 94.1206859 199.202943 93.8915048 199.582394 93.4709396 199.803403 93.0286305 199.776824zM257.124134 199.776824L246.829561 199.776824C246.199884 199.738986 245.708592 199.217007 245.708592 198.585837 245.708592 197.954667 246.199884 197.432688 246.829561 197.39485L257.124134 197.39485C257.566443 197.368271 257.987009 197.58928 258.21619 197.968731 258.445371 198.348181 258.445371 198.823493 258.21619 199.202943 257.987009 199.582394 257.566443 199.803403 257.124134 199.776824zM304.878088 199.776824L261.958295 199.776824C261.328618 199.738986 260.837326 199.217007 260.837326 198.585837 260.837326 197.954667 261.328618 197.432688 261.958295 197.39485L304.878088 197.39485C305.320397 197.368271 305.740962 197.58928 305.970143 197.968731 306.199324 198.348181 306.199324 198.823493 305.970143 199.202943 305.740962 199.582394 305.320397 199.803403 304.878088 199.776824zM330.614522 199.776824L311.458036 199.776824C311.015727 199.803403 310.595162 199.582394 310.365981 199.202943 310.1368 198.823493 310.1368 198.348181 310.365981 197.968731 310.595162 197.58928 311.015727 197.368271 311.458036 197.39485L330.614522 197.39485C331.056831 197.368271 331.477396 197.58928 331.706577 197.968731 331.935759 198.348181 331.935759 198.823493 331.706577 199.202943 331.477396 199.582394 331.056831 199.803403 330.614522 199.776824z"/>
    <ellipse cx="207.629" cy="28.931" fill="#B3B3B3" rx="2.788" ry="2.79"/>
    <ellipse cx="245.946" cy="59.382" fill="#B3B3B3" rx="2.788" ry="2.79"/>
    <ellipse cx="267.848" cy="88.142" fill="#B3B3B3" rx="2.788" ry="2.79"/>
    <ellipse cx="159" cy="51.069" fill="#B3B3B3" rx="2.788" ry="2.79"/>
    <ellipse cx="68.064" cy="48.584" fill="#B3B3B3" rx="2.788" ry="2.79"/>
    <ellipse cx="51.765" cy="123.691" fill="#B3B3B3" rx="2.788" ry="2.79"/>
    <ellipse cx="63.663" cy="163.73" fill="#B3B3B3" rx="2.788" ry="2.79"/>
    <ellipse cx="160.613" cy="61.197" fill="#B3B3B3" rx="1.613" ry="1.614"/>
    <ellipse cx="237.114" cy="73.7" fill="#B3B3B3" rx="1.613" ry="1.614"/>
    <ellipse cx="259.269" cy="97.511" fill="#B3B3B3" rx="1.613" ry="1.614"/>
    <ellipse cx="65.276" cy="131.202" fill="#B3B3B3" rx="1.613" ry="1.614"/>
    <ellipse cx="93.029" cy="24.305" fill="#B3B3B3" rx="1.613" ry="1.614"/>
  </g>
</svg>
