<svg xmlns="http://www.w3.org/2000/svg" width="104" height="40" viewBox="0 0 104 40">
  <g fill="none">
    <path fill="#0092FB" d="M69.5846154 1.10769231C69.0751868.624476859 68.3941623.364247996 67.6923077.384615385L48.7923077.384615385C48.0849886.370618064 47.4031978.648900019 46.9076923 1.15384615 46.3984498 1.66118794 46.1250386 2.35866567 46.1538462 3.07692308L46.1538462 15.9076923C46.8007042 16.0692662 47.3911682 16.4043944 47.8615385 16.8769231 48.5837954 17.596327 48.9787346 18.5808937 48.9538462 19.6 48.9809986 21.3067545 47.8155819 22.8019457 46.1538462 23.1923077L46.1538462 36.5C46.1416708 37.2069791 46.4196703 37.8880779 46.9230769 38.3846154 47.999216 39.4122145 49.6930917 39.4122145 50.7692308 38.3846154 51.2789182 37.8923062 51.5580826 37.2083535 51.5384615 36.5L51.5384615 21.9846154 62.9230769 21.9846154C63.6288284 22.0094705 64.3153817 21.752013 64.8307692 21.2692308 65.3190207 20.8325278 65.5986738 20.2089013 65.6 19.5538462 65.6244974 18.8446144 65.3445549 18.1587552 64.8307692 17.6692308 64.321795 17.1729924 63.6336664 16.9038453 62.9230769 16.9230769L51.5384615 16.9230769 51.5384615 5.48461538 67.6923077 5.48461538C68.3977858 5.48889829 69.0759352 5.21210262 69.5769231 4.71538462 70.0667395 4.26687505 70.3458167 3.63336997 70.3461538 2.96923077 70.3650697 2.26929297 70.0886835 1.59368214 69.5846154 1.10769231zM103.846154 4.87692308C103.84329 5.54286565 103.609484 6.18719002 103.184615 6.7 102.759799 7.28140597 102.073354 7.61309154 101.353846 7.58461538 100.831838 7.58507287 100.318295 7.45271648 99.8615385 7.2 97.5996192 5.91496664 95.0398773 5.24651588 92.4384615 5.26153846 89.8730452 5.20850832 87.3398835 5.8404711 85.1 7.09230769 82.9922815 8.29048819 81.272885 10.0686218 80.1461538 12.2153846 78.929235 14.5442861 78.3181514 17.1420527 78.3692308 19.7692308 78.291512 22.5224908 78.9190801 25.2498965 80.1923077 27.6923077 81.3400698 29.8383077 83.0917968 31.6007323 85.2307692 32.7615385 87.4445188 33.9430143 89.9217317 34.5437914 92.4307692 34.5076923 95.0423107 34.5390498 97.6115541 33.8468184 99.8538462 32.5076923 100.30148 32.2881806 100.793752 32.1749844 101.292308 32.1769231 102.05517 32.1523327 102.780843 32.5065305 103.230769 33.1230769 103.652964 33.6163885 103.887268 34.2430164 103.892308 34.8923077 103.898719 35.3381755 103.775816 35.7763518 103.538462 36.1538462 103.296979 36.5351937 102.963744 36.8499155 102.569231 37.0692308 101.038991 37.9106986 99.4115043 38.5616932 97.7230769 39.0076923 95.9976972 39.4758127 94.2185126 39.7163129 92.4307692 39.7230769 88.990337 39.7576965 85.5947145 38.9411616 82.5461538 37.3461538 79.5443092 35.7594665 77.0492957 33.3604151 75.3461538 30.4230769 73.4989421 27.1820675 72.570758 23.4985862 72.6615385 19.7692308 72.6126324 16.2325048 73.4989464 12.7456287 75.2307692 9.66153846 76.9027639 6.70127107 79.3492431 4.25213264 82.3076923 2.57692308 88.5981389-.886034164 96.2311156-.854036167 102.492308 2.66153846 103.3483 3.06025603 103.881826 3.93329913 103.846154 4.87692308zM27.1846154 25.2307692C26.6872167 25.6852104 26.0352057 25.9328095 25.3615385 25.9230769L5.86153846 25.9230769C6.01680856 28.3972196 7.1186568 30.7166101 8.93846154 32.4 10.7314015 34.0251841 13.0808524 34.8983095 15.5 34.8384615 16.979565 34.8957634 18.4540925 34.6333919 19.8230769 34.0692308 20.902689 33.5704186 21.8928446 32.8973207 22.7538462 32.0769231 23.2305481 31.7540543 23.7865375 31.5678378 24.3615385 31.5384615 24.9439032 31.536113 25.5010923 31.7757043 25.9 32.2 26.3105282 32.606446 26.5405728 33.1607702 26.5384615 33.7384615 26.5088455 34.5728864 26.1012155 35.3485156 25.4307692 35.8461538 24.199638 37.0169815 22.7521501 37.936685 21.1692308 38.5538462 19.4506986 39.2807121 17.6043846 39.6572974 15.7384615 39.6615385 13.007384 39.7294768 10.3041464 39.0993392 7.88461538 37.8307692 5.66302562 36.6170674 3.83677872 34.7908205 2.62307692 32.5692308 1.36201318 30.2207595.723766311 27.5883222.769230769 24.9230769.709418203 22.0830482 1.36547232 19.2736552 2.67692308 16.7538462 3.84089115 14.5355309 5.58488635 12.6745604 7.72307692 11.3692308 11.8252175 8.87532668 16.9702115 8.85460461 21.0923077 11.3153846 23.16283 12.5339782 24.8806458 14.2703506 26.0769231 16.3538462 27.3511767 18.5390443 28.0202741 21.0242634 28.0153846 23.5538462 27.9877101 24.2050614 27.6859334 24.8142031 27.1846154 25.2307692zM9.07692308 16.0923077C7.44881734 17.456117 6.3829454 19.3741385 6.08461538 21.4769231L22.4230769 21.4769231 22.4230769 21.0307692C22.2661386 19.1259671 21.310391 17.376558 19.7923077 16.2153846 18.2873014 14.9780867 16.3943713 14.3107948 14.4461538 14.3307692 12.5082612 14.2909176 10.6145711 14.9121999 9.07692308 16.0923077z"/>
    <path fill="#FFB078" d="M47.7769231,19.6 C47.7928472,20.2919395 47.5130504,20.9578559 47.0076923,21.4307692 C46.7541512,21.680005 46.4497783,21.87155 46.1153846,21.9923077 C45.8069482,22.1025985 45.4813903,22.1572922 45.1538462,22.1538462 L34.1153846,22.1538462 C33.4112316,22.1630171 32.7336493,21.8853195 32.2384615,21.3846154 C31.7202102,20.8885433 31.4400458,20.1937357 31.4692308,19.4769231 C31.4462262,18.7836598 31.7272024,18.1149366 32.2384615,17.6461538 C32.7454375,17.1689002 33.4192479,16.9093175 34.1153846,16.9230769 L45.1692308,16.9230769 C45.4975394,16.9184492 45.8237688,16.9758656 46.1307692,17.0923077 C46.4690323,17.2125884 46.7745668,17.4101322 47.0230769,17.6692308 C47.5319163,18.1799897 47.8050644,18.8795833 47.7769231,19.6 Z"/>
  </g>
</svg>
