<?xml version="1.0" standalone="no"?>
<!DOCTYPE svg PUBLIC "-//W3C//DTD SVG 20010904//EN"
 "http://www.w3.org/TR/2001/REC-SVG-20010904/DTD/svg10.dtd">
<svg version="1.0" xmlns="http://www.w3.org/2000/svg"
 width="260.000000pt" height="260.000000pt" viewBox="0 0 260.000000 260.000000"
 preserveAspectRatio="xMidYMid meet">
<metadata>
Created by potrace 1.11, written by Peter Selinger 2001-2013
</metadata>
<g transform="translate(0.000000,260.000000) scale(0.100000,-0.100000)"
fill="#000000" stroke="none">
<path d="M907 1783 c-4 -3 -7 -231 -7 -505 l0 -498 30 0 30 0 2 238 3 237 338
3 337 2 0 -240 0 -240 35 0 35 0 -2 503 -3 502 -30 0 -30 0 -3 -238 -2 -237
-338 2 -337 3 -3 238 -2 237 -24 0 c-12 0 -26 -3 -29 -7z"/>
</g>
</svg>
